<svg xmlns="http://www.w3.org/2000/svg" xmlns:xlink="http://www.w3.org/1999/xlink" width="500" zoomAndPan="magnify" viewBox="0 0 375 374.999991" height="500" preserveAspectRatio="xMidYMid meet" version="1.0"><defs><g/><clipPath id="a0b2375bef"><path d="M 187.5 0 C 83.945312 0 0 83.945312 0 187.5 C 0 291.054688 83.945312 375 187.5 375 C 291.054688 375 375 291.054688 375 187.5 C 375 83.945312 291.054688 0 187.5 0 Z M 187.5 0 " clip-rule="nonzero"/></clipPath><clipPath id="b5bf21f7d5"><path d="M 0 0 L 375 0 L 375 375 L 0 375 Z M 0 0 " clip-rule="nonzero"/></clipPath><clipPath id="63296eecb1"><path d="M 187.5 0 C 83.945312 0 0 83.945312 0 187.5 C 0 291.054688 83.945312 375 187.5 375 C 291.054688 375 375 291.054688 375 187.5 C 375 83.945312 291.054688 0 187.5 0 Z M 187.5 0 " clip-rule="nonzero"/></clipPath><clipPath id="7f8af47f04"><rect x="0" width="375" y="0" height="375"/></clipPath><clipPath id="daecc8b9b4"><rect x="0" width="356" y="0" height="211"/></clipPath></defs><g clip-path="url(#a0b2375bef)"><g transform="matrix(1, 0, 0, 1, 0, 0)"><g clip-path="url(#7f8af47f04)"><g clip-path="url(#b5bf21f7d5)"><g clip-path="url(#63296eecb1)"><rect x="-82.5" width="540" fill="#ffffff" height="539.999987" y="-82.499998" fill-opacity="1"/></g></g></g></g></g><g transform="matrix(1, 0, 0, 1, 10, 82)"><g clip-path="url(#daecc8b9b4)"><g fill="#0f172a" fill-opacity="1"><g transform="translate(0.441085, 166.752798)"><g><path d="M 71.75 2.0625 C 59.5 2.0625 48.425781 -0.597656 38.53125 -5.921875 C 28.632812 -11.242188 20.851562 -18.625 15.1875 -28.0625 C 9.519531 -37.5 6.6875 -48.171875 6.6875 -60.078125 C 6.6875 -71.972656 9.519531 -82.640625 15.1875 -92.078125 C 20.851562 -101.523438 28.632812 -108.90625 38.53125 -114.21875 C 48.425781 -119.539062 59.554688 -122.203125 71.921875 -122.203125 C 82.328125 -122.203125 91.734375 -120.367188 100.140625 -116.703125 C 108.554688 -113.046875 115.625 -107.785156 121.34375 -100.921875 L 103.5 -84.453125 C 95.375 -93.828125 85.304688 -98.515625 73.296875 -98.515625 C 65.859375 -98.515625 59.21875 -96.882812 53.375 -93.625 C 47.539062 -90.363281 42.992188 -85.816406 39.734375 -79.984375 C 36.472656 -74.148438 34.84375 -67.515625 34.84375 -60.078125 C 34.84375 -52.640625 36.472656 -46 39.734375 -40.15625 C 42.992188 -34.320312 47.539062 -29.773438 53.375 -26.515625 C 59.21875 -23.253906 65.859375 -21.625 73.296875 -21.625 C 85.304688 -21.625 95.375 -26.375 103.5 -35.875 L 121.34375 -19.390625 C 115.625 -12.410156 108.53125 -7.085938 100.0625 -3.421875 C 91.59375 0.234375 82.15625 2.0625 71.75 2.0625 Z M 71.75 2.0625 "/></g></g></g><g fill="#0d9488" fill-opacity="1"><g transform="translate(126.260758, 166.752798)"><g><path d="M 90.796875 0 L 67.625 -33.46875 L 42.046875 -33.46875 L 42.046875 0 L 14.25 0 L 14.25 -120.15625 L 66.25 -120.15625 C 76.894531 -120.15625 86.132812 -118.378906 93.96875 -114.828125 C 101.8125 -111.273438 107.847656 -106.238281 112.078125 -99.71875 C 116.316406 -93.195312 118.4375 -85.472656 118.4375 -76.546875 C 118.4375 -67.617188 116.289062 -59.921875 112 -53.453125 C 107.707031 -46.992188 101.613281 -42.050781 93.71875 -38.625 L 120.65625 0 Z M 90.28125 -76.546875 C 90.28125 -83.296875 88.101562 -88.472656 83.75 -92.078125 C 79.40625 -95.679688 73.054688 -97.484375 64.703125 -97.484375 L 42.046875 -97.484375 L 42.046875 -55.609375 L 64.703125 -55.609375 C 73.054688 -55.609375 79.40625 -57.4375 83.75 -61.09375 C 88.101562 -64.757812 90.28125 -69.910156 90.28125 -76.546875 Z M 90.28125 -76.546875 "/></g></g></g><g fill="#0d9488" fill-opacity="1"><g transform="translate(252.398907, 166.752798)"><g><path d="M 71.0625 0 L 50.8125 -28.328125 L 29.859375 0 L 0.6875 0 L 36.21875 -46.515625 L 1.890625 -92.34375 L 31.921875 -92.34375 L 51.5 -65.390625 L 71.578125 -92.34375 L 100.0625 -92.34375 L 65.734375 -47.203125 L 101.4375 0 Z M 71.0625 0 "/></g></g></g></g></g></svg>